PathFileType	4	(X/Y/Z)	C:/Users/opensim2020/Desktop/walking_exp_matlab/subject01_walking04_straight_04.trc	
DataRate	CameraRate	NumFrames	NumMarkers	Units	OrigDataRate	OrigDataStartFrame	OrigNumFrames	
100.00	100.00	4	43	mm	100.00	2801	279	
Frame#	Time	LFHD			RFHD			LBHD			RBHD			C7			T10			CLAV			STRN			RBAK			LSHO			LUPA			LELB			LFRM			LWRA			LWRB			LFIN			RSHO			RUPA			RELB			RFRM			RWRA			RWRB			RFIN			LASI			RASI			LPSI			RPSI			LTHI			LKNE			LTIB			LANK			LHEE			LTOE			RTHI			RKNE			RTIB			RANK			RHEE			RTOE			*39			*40			*41			*42			
		X1	Y1	Z1	X2	Y2	Z2	X3	Y3	Z3	X4	Y4	Z4	X5	Y5	Z5	X6	Y6	Z6	X7	Y7	Z7	X8	Y8	Z8	X9	Y9	Z9	X10	Y10	Z10	X11	Y11	Z11	X12	Y12	Z12	X13	Y13	Z13	X14	Y14	Z14	X15	Y15	Z15	X16	Y16	Z16	X17	Y17	Z17	X18	Y18	Z18	X19	Y19	Z19	X20	Y20	Z20	X21	Y21	Z21	X22	Y22	Z22	X23	Y23	Z23	X24	Y24	Z24	X25	Y25	Z25	X26	Y26	Z26	X27	Y27	Z27	X28	Y28	Z28	X29	Y29	Z29	X30	Y30	Z30	X31	Y31	Z31	X32	Y32	Z32	X33	Y33	Z33	X34	Y34	Z34	X35	Y35	Z35	X36	Y36	Z36	X37	Y37	Z37	X38	Y38	Z38	X39	Y39	Z39	X40	Y40	Z40	X41	Y41	Z41	X42	Y42	Z42	X43	Y43	Z43	

105	1.040	1495.57153	914.61871	1664.43347	1383.20459	893.29816	1669.93164	1479.25366	1025.94983	1609.02698	1360.51465	1007.52496	1613.72632	1439.50952	1054.65808	1421.77527	1425.97632	1086.77026	1129.35718	1443.79773	906.75604	1358.02734	1452.70972	862.41370	1204.75171	1359.90393	1101.75403	1226.76099	1602.58386	974.79681	1384.88013	1695.86255	985.56628	1205.73755	1714.79590	967.31396	1053.87036	1740.44739	866.38824	994.59387	1723.58838	731.05798	967.07800	1746.90173	766.82257	924.86084	1762.67053	686.14270	912.14258	1288.97266	966.76526	1386.06079	1190.34802	1048.61023	1194.81104	1187.16162	1067.76892	1073.57336	1151.29065	1070.15417	955.42853	1160.53857	1019.10590	821.81592	1124.25781	1064.39502	835.54492	1125.03284	1049.09839	749.47644	1550.47791	928.08087	922.48389	1334.76501	899.84888	928.94458	1468.79309	1105.29541	937.13788	1325.72522	1086.18152	934.45007	1599.10693	1033.62024	601.69568	1586.44885	1079.81567	471.44934	1588.04834	1194.79065	318.34137	1538.37146	1294.56519	120.51110	1480.87549	1340.52185	108.90871	1555.11523	1170.81262	38.25258	1270.53650	872.41125	605.51019	1299.99463	824.34247	457.98636	1290.54272	830.31580	282.87692	1331.50964	791.14410	80.22643	1380.19836	831.68524	34.32621	1334.09924	647.68048	64.30459	1404.23694	909.94305	1702.58154	-3101.86035	1973.25598	1023.46552	-3140.62451	2012.52332	1022.05194			 
106	1.050	1492.81677	905.26746	1665.32092	1380.58679	883.62506	1670.68665	1476.34973	1016.47052	1609.77844	1357.71582	997.72076	1614.31873	1436.82361	1044.89343	1422.10254	1424.56128	1075.78223	1129.36108	1441.61182	896.94672	1358.58948	1450.82556	852.12921	1205.47681	1358.10962	1091.46118	1226.55005	1600.30127	965.69043	1385.44067	1693.80811	976.66077	1206.21375	1713.23242	958.81940	1054.23694	1739.30371	858.18872	994.67200	1722.56177	722.91949	966.65125	1746.08960	758.86267	924.67786	1761.82495	678.15936	911.82251	1286.49695	956.98047	1385.49670	1188.35144	1037.54700	1193.27734	1185.55457	1055.68188	1071.74109	1150.06409	1057.97815	953.54938	1160.44397	1006.95734	819.96088	1123.75085	1052.08484	833.47180	1124.87976	1036.62537	747.67224	1549.35034	916.37738	922.46844	1333.83215	888.48743	928.57971	1468.04382	1093.85889	936.86578	1324.30383	1074.16467	934.13489	1598.65430	1021.17719	601.36749	1586.46204	1067.23218	471.14600	1588.57275	1185.34949	320.47620	1539.70313	1290.39026	125.62363	1482.45874	1336.91418	116.06072	1555.01819	1170.48926	38.14699	1269.76819	864.27466	605.25989	1298.69299	815.58319	458.40976	1289.97144	822.83466	283.57449	1330.64221	787.55603	79.71004	1379.24353	830.00500	35.51928	1335.42102	644.41388	59.14964	1401.53711	900.57892	1703.31067	-3101.76978	1973.16101	1023.38104	-3140.55371	2012.53271	1021.99524			 
107	1.060	1490.11060	895.69238	1666.32800	1378.11023	873.53180	1671.61914	1473.31299	1006.88806	1610.90564	1354.83362	987.75800	1615.33643	1434.34766	1034.79883	1422.90344	1423.24792	1064.92346	1129.79834	1439.25623	887.22211	1359.52856	1448.97559	841.71143	1206.62134	1356.09717	1081.44165	1226.98206	1598.20850	956.36395	1386.41724	1691.59229	968.02832	1207.02856	1711.48718	950.47137	1055.00537	1737.94946	850.33246	994.73761	1721.52063	715.31927	965.91412	1745.20361	751.48010	924.27765	1760.86865	670.86285	911.04565	1284.02881	947.31750	1385.34399	1186.29065	1026.10461	1192.04065	1183.78516	1043.25488	1070.31628	1148.80359	1045.29749	951.91498	1160.31372	994.46130	818.41479	1123.26489	1039.17151	831.70605	1124.76636	1023.66595	746.35822	1548.13293	904.58411	922.72327	1332.81726	877.20123	928.84845	1467.53418	1082.41602	936.82837	1323.71094	1063.50317	934.81201	1598.08130	1007.92548	601.28015	1586.37500	1053.66089	470.86130	1589.40442	1175.16711	323.10880	1540.90332	1285.40308	131.19016	1483.85620	1332.16357	123.78229	1554.91504	1170.01978	38.28836	1267.52759	856.23798	605.73438	1297.72754	806.46558	459.65863	1288.49146	814.76581	284.89017	1329.89319	785.15381	78.88111	1378.40942	828.94104	36.44080	1336.85144	642.30804	53.87732	1398.84924	890.82977	1704.38379	-3101.90015	1973.22534	1023.33478	-3140.60303	2012.59375	1022.09595			 
108	1.070	1487.58435	886.06854	1667.38965	1375.57324	863.49841	1672.61987	1470.31616	997.25061	1612.23718	1351.81250	977.64807	1616.56836	1431.96594	1024.59741	1423.87488	1421.93640	1054.20288	1130.42639	1437.04272	877.35883	1360.65808	1447.18054	831.09894	1208.22083	1354.04724	1071.50146	1227.64026	1596.10876	946.75592	1387.75366	1689.26965	959.68396	1208.24780	1709.71619	942.35413	1056.24939	1736.48010	842.88049	995.01654	1720.30835	708.25031	964.77753	1744.01746	744.77142	923.48541	1759.89624	664.29071	909.85938	1281.90833	937.83691	1385.39478	1184.28516	1014.59253	1191.05981	1182.07898	1030.47571	1069.15027	1147.65759	1032.13794	950.81012	1160.33325	981.39697	817.19446	1122.55090	1025.82861	830.32935	1124.32605	1010.28638	745.22540	1546.67432	892.83057	923.14270	1331.68665	866.21460	929.71631	1467.33875	1070.94775	937.18835	1323.27869	1052.42468	936.18494	1597.33521	993.89185	601.15881	1586.44763	1038.70508	470.69223	1589.56104	1163.51514	325.63776	1542.32495	1279.76501	137.63615	1485.11511	1326.24890	132.19302	1554.48987	1169.08521	38.01424	1264.90796	848.71606	606.28387	1296.92432	797.59894	460.37241	1286.77405	807.63019	285.53647	1329.17065	783.05359	78.81099	1377.70801	828.02057	37.43806	1337.84021	640.44696	49.99223	1396.17981	880.64185	1705.44373	-3101.93726	1973.07153	1023.37915	-3140.76367	2012.46912	1022.04297			 
